# xmcd
#
# Track frame offsets:
#	150
#	14694
#	34678
#	52478
#	74405
#	86319
#	105781
#	124767
#	151531
#
# Disc length: 2318 seconds
#
# Revision: 3
# Processed by: cddbd v1.5.1PL2 Copyright (c) Steve Scherf et al.
# Submitted via: audiograbber 1.83.01
#
DISCID=6a090c09
DTITLE=John Mayall - Road Show
DYEAR=2006
DGENRE=Blues
TTITLE0=Why Worry
TTITLE1=Road Show
TTITLE2=Mama Talk To Your Daughter
TTITLE3=A Big Man
TTITLE4=Lost And Gone
TTITLE5=Mexico City
TTITLE6=John Lee Boogie
TTITLE7=Reaching For The Mountain
TTITLE8=Baby What You Want Me To Do
EXTD=Reissue of ca. 1981 UK-album
EXTT0=
EXTT1=
EXTT2=
EXTT3=
EXTT4=
EXTT5=
EXTT6=
EXTT7=
EXTT8=
PLAYORDER=
